<svg xmlns="http://www.w3.org/2000/svg" width="1280" height="420" viewBox="0 0 1280 420"><defs><linearGradient id="bg" x1="0" y1="0" x2="1" y2=".7"><stop stop-color="#0b1220"/><stop offset=".48" stop-color="#123f46"/><stop offset="1" stop-color="#296356"/></linearGradient><linearGradient id="ink" x1="0" y1="0" x2="1" y2="1"><stop stop-color="#74edcf"/><stop offset="1" stop-color="#b2ed74"/></linearGradient><radialGradient id="halo"><stop stop-color="#b2ed74" stop-opacity=".2"/><stop offset="1" stop-color="#b2ed74" stop-opacity="0"/></radialGradient><pattern id="grid" width="40" height="40" patternUnits="userSpaceOnUse"><path d="M40 0H0V40" fill="none" stroke="#d3def5" stroke-opacity=".045"/></pattern><clipPath id="edge"><rect width="1280" height="420" rx="20"/></clipPath></defs><g clip-path="url(#edge)"><rect width="1280" height="420" fill="url(#bg)"/><ellipse cx="1060" cy="160" rx="390" ry="310" fill="url(#halo)"/><path d="M940-50 717 470H970L1193-50Z" fill="#74edcf" opacity=".035"/><rect width="1280" height="420" fill="url(#grid)"/><text x="56" y="76" fill="#74edcf" font-family="Arial,sans-serif" font-size="14" letter-spacing="2.5">LESS NOISE. SAME TRUTH.</text><text x="51" y="191" fill="#f4f5fa" font-family="Arial,sans-serif" font-size="86" font-weight="700" letter-spacing="-4">tssift</text><text x="56" y="252" fill="#d0d9e8" font-family="Arial,sans-serif" font-size="25">Find the cause behind the cascade.</text><g transform="translate(1035 190)"><path d="M-164 -78h40L-64 -39" fill="none" stroke="url(#ink)" stroke-width="2" /><path d="M-177 -84h12v12h-12z" fill="url(#ink)"/><path d="M-164 -26h48L-64 -13" fill="none" stroke="url(#ink)" stroke-width="2" /><path d="M-177 -32h12v12h-12z" fill="url(#ink)"/><path d="M-164 26h56L-64 13" fill="none" stroke="url(#ink)" stroke-width="2" /><path d="M-177 20h12v12h-12z" fill="url(#ink)"/><path d="M-164 78h64L-64 39" fill="none" stroke="url(#ink)" stroke-width="2" /><path d="M-177 72h12v12h-12z" fill="url(#ink)"/><path d="M-76-104H84L27-22V58L-19 89V-22Z" fill="none" stroke="url(#ink)" stroke-width="4" stroke-linejoin="miter"/><path d="M-53-79H61M-37-56H44" fill="none" stroke="#b2edb6" stroke-width="2" /><path d="M27 27H91L117 1H167" fill="none" stroke="url(#ink)" stroke-width="3" /><path d="M158-8 168 1 158 10" fill="none" stroke="url(#ink)" stroke-width="3"/><path d="M-8-17H16V7H-8Z" fill="url(#ink)"/><text x="-179" y="-118" fill="#d1e0ef" font-family="monospace" font-size="10" letter-spacing="1.4">DIAGNOSTICS</text><text x="82" y="39" fill="#d1e0ef" font-family="monospace" font-size="10" letter-spacing="1.4">CAUSE</text><path d="M-172 113H-103L-87 97H53" fill="none" stroke="#88bcaf" stroke-width="1" /></g><path d="M56 337H1224" stroke="#d3def5" stroke-opacity=".17"/><text x="56" y="371" fill="#8291aa" font-family="Arial,sans-serif" font-size="13" letter-spacing="2">BY ELIE LALOUM</text><path d="M1165 366H1224" stroke="url(#ink)" stroke-width="3"/></g></svg>